<svg id="Iconly_Bulk_Message" data-name="Iconly/Bulk/Message" xmlns="http://www.w3.org/2000/svg" width="23.922" height="21.53" viewBox="0 0 23.922 21.53">
  <g id="Message">
    <path id="Path_34208" d="M23.921,6.044v9.443A6.025,6.025,0,0,1,17.9,21.53H6.049A6.036,6.036,0,0,1,0,15.5V6.044A5.932,5.932,0,0,1,.372,3.983,6.039,6.039,0,0,1,6.049,0H17.872a6.038,6.038,0,0,1,5.709,4.057A5.54,5.54,0,0,1,23.921,6.044Z" transform="translate(0 0)" fill="#273443" opacity="0.4"/>
    <path id="Path_34209" d="M23.52,4.068l-.117.1c-2.2,1.71-9.324,7.435-9.324,7.435a3.373,3.373,0,0,1-4.253,0S2.746,5.884.545,4.174L.311,3.994A6.039,6.039,0,0,1,5.988,0H17.811A6.038,6.038,0,0,1,23.52,4.068Z" transform="translate(0.061 0)" fill="#273443"/>
  </g>
</svg>
